<svg width="216" height="64" viewBox="0 0 216 64" fill="none" xmlns="http://www.w3.org/2000/svg">
<path d="M104.24 16.8799C104.24 16.8799 104.24 15.1999 105.92 15.1999C107.52 15.1999 107.44 16.9599 107.44 16.9599V21.5199H109.12V16.9599C109.12 16.9599 109.2 13.7599 106.48 13.7599C104.72 13.7599 104.08 15.1199 104.08 15.1199L104 13.9199H102.48L102.56 16.0799V21.5199H104.24V16.8799ZM179.92 16.8799C179.92 16.8799 179.92 15.1999 181.6 15.1999C183.2 15.1999 183.12 16.9599 183.12 16.9599V21.5199H184.8V16.9599C184.8 16.9599 184.88 13.7599 182.16 13.7599C180.4 13.7599 179.92 15.1199 179.92 15.1199V10.4799H178.24V21.5199H179.92V16.8799ZM114.32 50.7199C123.36 50.7199 123.36 34.7199 114.8 34.7199C110.88 34.7199 109.52 37.5999 109.52 37.5999L109.36 35.0399H106.32L106.48 38.4799V56.6399H109.92V48.5599C109.92 48.5599 110.96 50.7199 114.32 50.7199ZM113.68 37.4399C119.04 37.4399 119.04 48.0799 113.6 48.0799C110 48.0799 109.92 44.3199 109.92 44.3199V41.5199C109.92 41.5199 110 37.4399 113.68 37.4399ZM87.8399 17.6799C87.8399 12.4799 80.4799 12.4799 80.4799 17.7599C80.4799 23.1199 87.8399 22.9599 87.8399 17.6799ZM86.0799 17.6799C86.0799 21.3599 82.1599 21.4399 82.1599 17.7599C82.1599 14.1599 86.0799 14.0799 86.0799 17.6799ZM123.6 17.6799C123.6 12.4799 116.24 12.4799 116.24 17.7599C116.24 23.1199 123.6 22.9599 123.6 17.6799ZM121.84 17.6799C121.84 21.3599 117.92 21.4399 117.92 17.7599C117.92 14.1599 121.84 14.0799 121.84 17.6799ZM159.76 16.8799C159.76 16.8799 159.76 15.1999 161.44 15.1999C163.04 15.1999 162.96 16.9599 162.96 16.9599V21.5199H164.64V16.9599C164.64 16.9599 164.72 13.7599 162 13.7599C160.24 13.7599 159.6 15.1199 159.6 15.1199L159.52 13.9199H158L158.08 16.0799V21.5199H159.76V16.8799ZM52.6399 23.8399C52.6399 23.8399 49.9999 19.7599 44.5599 19.7599C41.5199 19.7599 38.9599 21.6799 37.3599 21.6799C35.4399 21.6799 33.6799 19.9199 30.5599 19.9199C24.5599 19.9199 19.5999 25.5999 20.5599 34.2399C21.4399 41.9999 26.9599 50.7999 31.0399 50.7999C33.5999 50.7999 34.7199 49.1199 37.8399 49.1199C40.9599 49.1199 41.8399 50.7199 44.5599 50.7199C49.1199 50.7199 52.8799 42.6399 53.6799 39.9199C47.3599 37.3599 45.7599 28.1599 52.6399 23.8399ZM45.1999 9.91992C40.7999 10.2399 36.5599 14.5599 37.0399 19.3599C41.7599 19.5199 45.6799 14.7199 45.1999 9.91992ZM85.8399 50.3999L78.9599 29.1199H74.7199L67.8399 50.3999H71.3599L73.2799 44.1599H80.2399L82.1599 50.3999H85.8399ZM79.5999 41.5199H73.9199L76.7199 32.1599L79.5999 41.5199ZM96.6399 50.7199C105.68 50.7199 105.68 34.7199 97.1199 34.7199C93.1999 34.7199 91.8399 37.5999 91.8399 37.5999L91.6799 35.0399H88.6399L88.7999 38.7199V56.6399H92.2399V48.5599C92.2399 48.5599 93.2799 50.7199 96.6399 50.7199ZM95.9999 37.4399C101.44 37.4399 101.44 48.0799 95.9199 48.0799C92.3199 48.0799 92.2399 44.3199 92.2399 44.3199V41.5199C92.2399 41.5199 92.3199 37.4399 95.9999 37.4399ZM133.2 50.7199C137.6 50.7199 140.88 48.5599 140.88 44.3999C140.88 41.0399 138.48 39.3599 135.52 38.1599C133.6 37.3599 131.44 36.5599 131.44 34.3999C131.44 32.5599 133.12 31.5999 135.12 31.5999C137.44 31.5999 139.2 32.5599 139.2 32.5599L140.08 29.8399C140.08 29.8399 138.32 28.7999 135.2 28.7999C131.28 28.7999 128 31.0399 128 34.7999C128 37.4399 129.84 39.5199 133.6 40.8799C135.68 41.5999 137.44 42.5599 137.44 44.7199C137.44 46.8799 135.68 47.9199 133.36 47.9199C130.4 47.9199 128.48 46.5599 128.48 46.5599L127.68 49.3599C127.68 49.3599 129.36 50.7199 133.2 50.7199ZM145.04 45.3599C145.04 48.7999 146.24 50.7199 149.36 50.7199C151.04 50.7199 152 50.3199 152 50.3199L151.92 47.7599C151.92 47.7599 151.28 47.9199 150.4 47.9199C149.04 47.9199 148.4 46.9599 148.4 45.0399V37.5999H152.16V35.0399H148.4V31.1999L145.04 32.2399V35.0399H142.8V37.5999H145.04V45.3599ZM169.12 42.6399C169.12 31.9999 154.08 31.9199 154.08 42.8799C154.08 53.5199 169.12 53.3599 169.12 42.6399ZM165.6 42.7199C165.6 50.0799 157.52 50.1599 157.52 42.7999C157.52 35.5199 165.6 35.3599 165.6 42.7199ZM175.52 41.9199C175.52 41.9199 175.6 37.9199 179.12 37.9199C179.68 37.9199 180.16 37.9999 180.16 37.9999V34.7999C180.16 34.7999 179.68 34.7199 179.36 34.7199C176 34.7199 175.12 38.1599 175.12 38.1599L174.96 35.0399H172L172.08 38.3199V50.3999H175.52V41.9199ZM189.44 50.7199C192.4 50.7199 194.56 49.7599 194.56 49.7599L194.08 47.3599C194.08 47.3599 192.56 48.0799 189.92 48.0799C184.88 48.0799 185.12 43.5199 185.12 43.5199H195.36C195.84 38.7199 193.92 34.7199 189.04 34.7199C183.84 34.7199 181.84 39.2799 181.84 42.8799C181.84 47.0399 184.16 50.7199 189.44 50.7199ZM185.12 41.1199C185.12 40.3199 185.92 37.0399 188.8 37.0399C192.4 37.0399 192.16 41.1199 192.16 41.1199H185.12ZM78.4799 15.9999C78.4799 12.6399 76.3999 10.9599 72.7999 10.9599C71.1999 10.9599 69.9199 11.1999 69.9199 11.1999V21.4399C69.9199 21.4399 71.3599 21.5999 72.3199 21.5999C76.1599 21.5999 78.4799 19.7599 78.4799 15.9999ZM76.7199 16.0799C76.7199 18.7199 75.3599 20.2399 72.7199 20.2399C71.9999 20.2399 71.5199 20.1599 71.5199 20.1599V12.3999C71.5199 12.3999 72.3199 12.3199 72.8799 12.3199C75.4399 12.3199 76.7199 13.5999 76.7199 16.0799ZM100.4 13.9199H98.7999L97.2799 19.9199L95.6799 13.9199H94.3199L92.5599 19.9199L91.1999 13.9199H89.5199L91.7599 21.5199H93.3599L94.9599 15.9199L96.4799 21.5199H98.0799L100.4 13.9199ZM112.08 21.5199H113.76V10.4799H112.08V21.5199ZM125.52 19.4399C125.52 21.9199 128.8 22.3999 130.08 20.6399L130.24 21.5199H131.76L131.6 20.0799V16.8799C131.6 14.7999 130.64 13.7599 128.64 13.7599C127.04 13.7599 126.08 14.3999 126.08 14.3999L126.4 15.5199C126.4 15.5199 127.12 14.9599 128.4 14.9599C129.52 14.9599 129.92 15.5199 129.92 16.6399C127.68 16.5599 125.52 17.3599 125.52 19.4399ZM127.2 19.2799C127.2 17.4399 130 17.7599 130 17.7599V18.8799C130 20.6399 127.2 21.1199 127.2 19.2799ZM137.2 21.6799C139.12 21.6799 139.68 20.3199 139.68 20.3199L139.76 21.5199H141.28C141.28 21.5199 141.2 20.3999 141.2 19.4399V10.4799H139.52V14.7999C139.52 14.7999 138.96 13.7599 137.36 13.7599C133.04 13.7599 132.88 21.6799 137.2 21.6799ZM137.76 15.1199C139.52 15.1199 139.52 17.0399 139.52 17.0399V18.3199C139.52 18.3199 139.52 20.3199 137.68 20.3199C135.12 20.3199 134.96 15.1199 137.76 15.1199ZM155.6 17.6799C155.6 12.4799 148.24 12.4799 148.24 17.7599C148.24 23.1199 155.6 22.9599 155.6 17.6799ZM153.84 17.6799C153.84 21.3599 149.92 21.4399 149.92 17.7599C149.92 14.1599 153.84 14.0799 153.84 17.6799ZM172.4 19.0399C172.4 20.6399 173.04 21.6799 174.48 21.6799C175.44 21.6799 175.84 21.4399 175.84 21.4399L175.76 20.1599C175.76 20.1599 175.52 20.2399 175.04 20.2399C174.4 20.2399 174.08 19.8399 174.08 18.8799V15.1999H175.92V13.9199H174.08V12.0799L172.4 12.5599V13.9199H171.28V15.1999H172.4V19.0399ZM190.96 21.5999C192.56 21.5999 193.52 21.1999 193.52 21.1999L193.28 19.9999C193.28 19.9999 192.64 20.3199 191.2 20.3199C188.72 20.3199 188.8 18.1599 188.8 18.1599H193.84C194.24 16.3199 193.36 13.7599 190.8 13.7599C188.48 13.7599 187.2 15.7599 187.2 17.8399C187.2 19.7599 188.24 21.5999 190.96 21.5999ZM188.8 16.9599C188.8 16.9599 188.96 14.9599 190.64 14.9599C192.48 14.9599 192.32 16.9599 192.32 16.9599H188.8Z" fill="black"/>
</svg>
