<svg width="12" height="14" viewBox="0 0 12 14" fill="none" xmlns="http://www.w3.org/2000/svg">
<path d="M4 0.499836L4.36826 0.161633C4.27357 0.0585249 4.13999 -0.000164169 4 -0.000164163C3.86001 -0.000164157 3.72643 0.058525 3.63173 0.161633L4 0.499836ZM0.631735 3.4283C0.444951 3.63169 0.45841 3.94798 0.661797 4.13477C0.865184 4.32155 1.18148 4.30809 1.36826 4.1047L0.631735 3.4283ZM6.63173 4.1047C6.81852 4.30809 7.13481 4.32155 7.3382 4.13477C7.54159 3.94798 7.55505 3.63169 7.36826 3.4283L6.63173 4.1047ZM11.5 13.5C11.7761 13.5 12 13.2761 12 13C12 12.7239 11.7761 12.5 11.5 12.5L11.5 13.5ZM4.5 6L4.5 0.499836L3.5 0.499836L3.5 6L4.5 6ZM3.63173 0.161633L0.631735 3.4283L1.36826 4.1047L4.36826 0.838038L3.63173 0.161633ZM3.63173 0.838038L6.63173 4.1047L7.36826 3.4283L4.36826 0.161633L3.63173 0.838038ZM11 13.5L11.5 13.5L11.5 12.5L11 12.5L11 13.5ZM3.5 6C3.5 10.1421 6.85786 13.5 11 13.5L11 12.5C7.41015 12.5 4.5 9.58985 4.5 6L3.5 6Z" fill="black"/>
</svg>
