<svg width="146" height="35" viewBox="0 0 146 35" fill="none" xmlns="http://www.w3.org/2000/svg">
<path d="M48.3969 5.68064C48.4148 6.10166 48.3541 6.52225 48.2183 6.91689C48.0826 7.31153 47.8747 7.67197 47.6072 7.97635C47.3086 8.3145 46.948 8.58024 46.5489 8.75627C46.1498 8.93229 45.7211 9.01464 45.2908 8.99793C44.638 8.99236 44.0011 8.77689 43.4602 8.3785C42.9192 7.98011 42.498 7.41653 42.2496 6.75838C42.0011 6.10022 41.9364 5.37677 42.0634 4.67867C42.1905 3.98057 42.5037 3.33887 42.9638 2.83397C43.2662 2.4974 43.6288 2.23206 44.029 2.05437C44.4293 1.87667 44.8587 1.79041 45.2908 1.8009C45.7359 1.79929 46.1767 1.89694 46.5859 2.08787C46.9669 2.2554 47.3061 2.51895 47.5757 2.85693L47.0176 3.46529C46.8074 3.19278 46.542 2.97729 46.2423 2.83585C45.9426 2.69441 45.6169 2.63089 45.2908 2.65031C44.9619 2.64856 44.6361 2.71922 44.3328 2.85806C44.0296 2.99691 43.7552 3.20108 43.5261 3.45833C43.297 3.71559 43.1179 4.02062 42.9996 4.35516C42.8813 4.68969 42.8261 5.04683 42.8374 5.40516C42.8305 5.94021 42.9692 6.46551 43.2358 6.91478C43.5025 7.36405 43.8852 7.71716 44.3357 7.92958C44.7862 8.142 45.2844 8.2042 45.7673 8.10834C46.2502 8.01248 46.6963 7.76285 47.0492 7.39094C47.3732 7.00818 47.5601 6.51112 47.5757 5.99056H45.2908V5.16411H48.3548C48.3829 5.33458 48.397 5.50744 48.3969 5.68064Z" fill="black" stroke="white" stroke-width="0.2" stroke-miterlimit="10"/>
<path d="M54 2.68805H50.9143V4.96805H53.7257V5.83205H50.9143V8.11205H54V9.00005H50V1.80005H54V2.68805Z" fill="black" stroke="white" stroke-width="0.2" stroke-miterlimit="10"/>
<path d="M58.09 9.00005H57.0559V2.68805H54.7998V1.80005H60.3998V2.68805H58.09V9.00005Z" fill="black" stroke="white" stroke-width="0.2" stroke-miterlimit="10"/>
<path d="M63.6001 9.00005V1.80005H64.4001V9.00005H63.6001Z" fill="black" stroke="white" stroke-width="0.2" stroke-miterlimit="10"/>
<path d="M68.5298 9.00005H67.4832V2.68805H65.1997V1.80005H70.7997V2.68805H68.5298V9.00005Z" fill="black" stroke="white" stroke-width="0.2" stroke-miterlimit="10"/>
<path d="M79.3634 7.95835C78.6815 8.62554 77.7591 9.00005 76.7975 9.00005C75.8359 9.00005 74.9135 8.62554 74.2316 7.95835C73.5689 7.26806 73.1997 6.35443 73.1997 5.40481C73.1997 4.45519 73.5689 3.54156 74.2316 2.85127C74.5677 2.51815 74.9675 2.25377 75.4078 2.07335C75.8482 1.89293 76.3205 1.80005 76.7975 1.80005C77.2745 1.80005 77.7468 1.89293 78.1872 2.07335C78.6276 2.25377 79.0273 2.51815 79.3634 2.85127C80.0287 3.54024 80.3997 4.45437 80.3997 5.40481C80.3997 6.35525 80.0287 7.26938 79.3634 7.95835ZM74.8964 7.38452C75.4014 7.8793 76.0849 8.1571 76.7975 8.1571C77.5101 8.1571 78.1936 7.8793 78.6986 7.38452C79.1969 6.844 79.4729 6.14033 79.4729 5.41055C79.4729 4.68076 79.1969 3.9771 78.6986 3.43657C78.1936 2.94179 77.5101 2.664 76.7975 2.664C76.0849 2.664 75.4014 2.94179 74.8964 3.43657C74.3981 3.9771 74.1221 4.68076 74.1221 5.41055C74.1221 6.14033 74.3981 6.844 74.8964 7.38452Z" fill="black" stroke="white" stroke-width="0.2" stroke-miterlimit="10"/>
<path d="M82 9.00005V1.80005H83.1369L86.6687 7.40405V6.01205V1.80005H87.6V9.00005H86.6324L82.9434 3.13205V4.52405V9.00005H82Z" fill="black" stroke="white" stroke-width="0.2" stroke-miterlimit="10"/>
<path d="M73.2986 19.3925C72.3101 19.3971 71.3451 19.6942 70.5254 20.2463C69.7058 20.7984 69.0682 21.5806 68.6931 22.4944C68.3181 23.4082 68.2223 24.4124 68.418 25.3805C68.6137 26.3486 69.0921 27.237 69.7927 27.9337C70.4933 28.6304 71.3848 29.1042 72.3547 29.2951C73.3246 29.4861 74.3293 29.3857 75.2421 29.0067C76.155 28.6277 76.935 27.9871 77.4837 27.1656C78.0324 26.3441 78.3252 25.3786 78.3252 24.391C78.3348 23.73 78.2112 23.0737 77.9617 22.4614C77.7122 21.8491 77.3419 21.2932 76.8729 20.8268C76.4039 20.3604 75.8457 19.9931 75.2317 19.7467C74.6176 19.5003 73.9602 19.3798 73.2986 19.3925ZM73.2986 27.4254C72.6907 27.4679 72.084 27.3267 71.5575 27.0201C71.0309 26.7135 70.6089 26.2558 70.3462 25.7064C70.0835 25.157 69.9923 24.5414 70.0844 23.9396C70.1766 23.3377 70.4478 22.7775 70.8629 22.3317C71.278 21.8859 71.8177 21.5751 72.4119 21.4399C73.0061 21.3046 73.6272 21.351 74.1947 21.5731C74.7621 21.7952 75.2495 22.1827 75.5936 22.6853C75.9376 23.1878 76.1224 23.7822 76.1239 24.391C76.1428 24.7768 76.0843 25.1625 75.9517 25.5253C75.8191 25.8881 75.6151 26.2207 75.3518 26.5035C75.0885 26.7863 74.7711 27.0136 74.4185 27.1719C74.0659 27.3303 73.6851 27.4164 73.2986 27.4254ZM62.3388 19.3925C61.3498 19.3948 60.3837 19.69 59.5625 20.2406C58.7412 20.7913 58.1018 21.5727 57.7249 22.4863C57.3481 23.3999 57.2507 24.4045 57.445 25.3734C57.6394 26.3422 58.1168 27.2317 58.817 27.9296C59.5172 28.6275 60.4087 29.1024 61.3788 29.2943C62.349 29.4862 63.3544 29.3866 64.2679 29.0079C65.1814 28.6292 65.9621 27.9885 66.5113 27.1668C67.0606 26.3451 67.3537 25.3791 67.3537 24.391C67.3633 23.73 67.2397 23.0737 66.9902 22.4614C66.7406 21.8491 66.3703 21.2932 65.9013 20.8268C65.4323 20.3604 64.8742 19.9931 64.2601 19.7467C63.6461 19.5003 62.9887 19.3798 62.327 19.3925H62.3388ZM62.3388 27.4254C61.7306 27.4703 61.1229 27.3312 60.5949 27.0262C60.067 26.7212 59.6431 26.2644 59.3786 25.7154C59.114 25.1664 59.0211 24.5505 59.1117 23.948C59.2024 23.3455 59.4726 22.7841 59.8871 22.3371C60.3015 21.8901 60.8411 21.5782 61.4355 21.4418C62.0299 21.3055 62.6517 21.3511 63.2198 21.5727C63.7879 21.7943 64.2761 22.1816 64.6208 22.6843C64.9655 23.187 65.1507 23.7817 65.1523 24.391C65.1713 24.7768 65.1127 25.1625 64.9801 25.5253C64.8475 25.8881 64.6436 26.2207 64.3803 26.5035C64.1169 26.7863 63.7996 27.0136 63.447 27.1719C63.0943 27.3303 62.7135 27.4164 62.327 27.4254H62.3388ZM49.2836 20.9332V23.0502H54.3691C54.2894 24.0474 53.8745 24.9882 53.1919 25.72C52.6832 26.2378 52.0715 26.6434 51.3964 26.9108C50.7212 27.1782 49.9975 27.3014 49.2719 27.2725C47.7732 27.2725 46.336 26.6777 45.2763 25.619C44.2166 24.5603 43.6213 23.1244 43.6213 21.6271C43.6213 20.1299 44.2166 18.694 45.2763 17.6352C46.336 16.5765 47.7732 15.9818 49.2719 15.9818C50.7054 15.9584 52.0898 16.504 53.1213 17.4989L54.6164 16.0053C53.92 15.3008 53.0892 14.7432 52.1732 14.3654C51.2572 13.9876 50.2746 13.7973 49.2836 13.8059C48.2371 13.7652 47.1931 13.936 46.2142 14.3081C45.2353 14.6802 44.3417 15.2458 43.5869 15.9712C42.832 16.6965 42.2315 17.5667 41.8213 18.5295C41.4111 19.4922 41.1997 20.5278 41.1997 21.5742C41.1997 22.6206 41.4111 23.6562 41.8213 24.6189C42.2315 25.5817 42.832 26.4519 43.5869 27.1772C44.3417 27.9026 45.2353 28.4682 46.2142 28.8403C47.1931 29.2124 48.2371 29.3832 49.2836 29.3425C50.2913 29.388 51.2969 29.2173 52.233 28.842C53.1691 28.4667 54.0139 27.8954 54.7105 27.1667C55.9439 25.8128 56.6024 24.0332 56.547 22.2034C56.5508 21.7577 56.5114 21.3126 56.4293 20.8744L49.2836 20.9332ZM102.623 22.5798C102.316 21.6774 101.742 20.8894 100.976 20.3203C100.211 19.7511 99.291 19.4276 98.3377 19.3925C97.6938 19.3912 97.0564 19.5219 96.4651 19.7765C95.8737 20.0311 95.3409 20.4042 94.8995 20.8727C94.4582 21.3412 94.1177 21.8951 93.8992 22.5003C93.6806 23.1054 93.5886 23.7489 93.6289 24.391C93.6146 25.0484 93.733 25.7018 93.9772 26.3124C94.2213 26.923 94.5861 27.4782 95.0498 27.9447C95.5135 28.4113 96.0666 28.7797 96.676 29.028C97.2854 29.2762 97.9387 29.3992 98.5967 29.3895C99.4201 29.394 100.232 29.1943 100.959 28.8084C101.686 28.4225 102.307 27.8625 102.764 27.1784L101.057 26.0023C100.802 26.4266 100.442 26.7776 100.01 27.0209C99.5791 27.2641 99.092 27.3914 98.5967 27.3901C98.0868 27.4095 97.5828 27.2752 97.1503 27.0046C96.7178 26.7341 96.3768 26.3397 96.1717 25.8729L102.87 23.109L102.623 22.5798ZM95.7949 24.2499C95.7711 23.8861 95.8201 23.5212 95.9392 23.1766C96.0582 22.832 96.2449 22.5146 96.4883 22.2429C96.7317 21.9713 97.0268 21.7509 97.3565 21.5947C97.6862 21.4385 98.0438 21.3495 98.4083 21.3331C98.7881 21.3081 99.1668 21.3951 99.4974 21.5833C99.8281 21.7715 100.096 22.0525 100.268 22.3916L95.7949 24.2499ZM90.3563 29.0955H92.5576V14.394H90.3563V29.0955ZM86.754 20.5098H86.6716C86.3398 20.1392 85.9334 19.8429 85.479 19.6402C85.0245 19.4375 84.5324 19.333 84.0347 19.3337C82.7482 19.396 81.5351 19.9505 80.6467 20.8822C79.7583 21.8138 79.2627 23.0513 79.2627 24.3381C79.2627 25.6249 79.7583 26.8623 80.6467 27.794C81.5351 28.7257 82.7482 29.2801 84.0347 29.3425C84.5335 29.3509 85.0282 29.2499 85.4838 29.0467C85.9393 28.8435 86.3448 28.543 86.6716 28.1664H86.7422V28.8838C86.7422 30.8009 85.7181 31.8241 84.07 31.8241C83.5211 31.8113 82.9884 31.6355 82.5398 31.3193C82.0912 31.003 81.7469 30.5605 81.5508 30.0481L79.6319 30.8479C79.9931 31.7257 80.6086 32.4757 81.3993 33.0017C82.1901 33.5277 83.1201 33.8056 84.07 33.8C86.6481 33.8 88.7788 32.2828 88.7788 28.5898V19.6865H86.754V20.5098ZM84.2348 27.4254C83.4755 27.3585 82.7687 27.0099 82.2539 26.4482C81.7391 25.8866 81.4535 25.1526 81.4535 24.391C81.4535 23.6294 81.7391 22.8954 82.2539 22.3338C82.7687 21.7721 83.4755 21.4235 84.2348 21.3566C84.6113 21.3759 84.9801 21.4703 85.3195 21.6342C85.659 21.7981 85.9621 22.0283 86.2112 22.311C86.4602 22.5938 86.65 22.9235 86.7696 23.2807C86.8891 23.638 86.9358 24.0155 86.9071 24.391C86.9392 24.7682 86.8944 25.1479 86.7754 25.5073C86.6564 25.8667 86.4657 26.1983 86.2148 26.4819C85.9639 26.7655 85.6581 26.9954 85.3157 27.1576C84.9734 27.3197 84.6016 27.4109 84.223 27.4254H84.2348ZM112.935 14.394H107.673V29.0955H109.874V23.5207H112.947C113.574 23.5657 114.204 23.4811 114.797 23.2722C115.391 23.0633 115.934 22.7345 116.395 22.3063C116.855 21.8782 117.223 21.3598 117.474 20.7837C117.725 20.2075 117.854 19.5858 117.854 18.9573C117.854 18.3289 117.725 17.7072 117.474 17.131C117.223 16.5548 116.855 16.0365 116.395 15.6083C115.934 15.1802 115.391 14.8514 114.797 14.6425C114.204 14.4335 113.574 14.349 112.947 14.394H112.935ZM112.935 21.4507H109.863V16.4404H112.982C113.652 16.4404 114.294 16.7062 114.768 17.1793C115.241 17.6525 115.507 18.2941 115.507 18.9632C115.507 19.6323 115.241 20.274 114.768 20.7471C114.294 21.2202 113.652 21.486 112.982 21.486L112.935 21.4507ZM126.508 19.3337C125.707 19.2858 124.909 19.4729 124.212 19.872C123.516 20.2711 122.951 20.8648 122.588 21.5801L124.542 22.3916C124.735 22.0368 125.027 21.7457 125.382 21.5536C125.737 21.3614 126.141 21.2767 126.544 21.3096C126.823 21.277 127.106 21.3003 127.376 21.3782C127.647 21.4561 127.899 21.587 128.118 21.7632C128.337 21.9395 128.519 22.1576 128.653 22.4048C128.787 22.652 128.87 22.9234 128.898 23.2031V23.356C128.191 22.982 127.402 22.7881 126.602 22.7915C124.495 22.7915 122.364 23.9676 122.364 26.0964C122.385 26.5503 122.497 26.9954 122.693 27.4055C122.889 27.8155 123.165 28.1821 123.505 28.4837C123.846 28.7852 124.243 29.0155 124.674 29.161C125.105 29.3065 125.56 29.3642 126.014 29.3307C126.568 29.3705 127.123 29.2604 127.62 29.0121C128.117 28.7638 128.538 28.3863 128.839 27.9194H128.91V29.0955H131.029V23.4383C131.029 20.8626 129.075 19.369 126.567 19.369L126.508 19.3337ZM126.237 27.3901C125.519 27.3901 124.519 27.0255 124.519 26.1434C124.519 24.9673 125.767 24.5792 126.873 24.5792C127.572 24.5619 128.264 24.7325 128.874 25.0732C128.801 25.7099 128.499 26.2986 128.026 26.7309C127.552 27.1631 126.938 27.4098 126.296 27.4254L126.237 27.3901ZM138.751 19.6865L136.232 26.0611H136.161L133.548 19.6865H131.193L135.114 28.6015L132.877 33.553H135.172L141.2 19.6865H138.751ZM118.962 29.0955H121.164V14.394H118.962V29.0955Z" fill="black"/>
<path d="M5.20316 2.32934C4.81898 2.79172 4.62507 3.38365 4.66096 3.98446V30.1354C4.62507 30.7362 4.81898 31.3282 5.20316 31.7905L5.28566 31.8733L19.8896 17.2373V16.8944L5.28566 2.24658L5.20316 2.32934Z" fill="url(#paint0_linear)"/>
<path d="M24.7227 22.1204L19.8901 17.2378V16.8949L24.7227 12.0005L24.8288 12.0596L30.6162 15.358C32.2663 16.292 32.2663 17.8289 30.6162 18.7747L24.8524 22.0613L24.7227 22.1204Z" fill="url(#paint1_linear)"/>
<path d="M24.8641 22.0498L19.89 17.0608L5.20361 31.7914C5.53997 32.088 5.96904 32.2573 6.41669 32.2703C6.86434 32.2833 7.30244 32.1389 7.65528 31.8623L24.8759 22.0498" fill="url(#paint2_linear)"/>
<path d="M24.8632 12.0707L7.64258 2.25815C7.28975 1.98152 6.85165 1.83722 6.404 1.85017C5.95635 1.86312 5.52727 2.03252 5.19092 2.32908L19.8891 17.0597L24.8632 12.0707Z" fill="url(#paint3_linear)"/>
<path opacity="0.2" d="M24.7226 21.9429L7.64349 31.6963C7.30319 31.9515 6.8897 32.0894 6.46481 32.0894C6.03991 32.0894 5.62642 31.9515 5.28612 31.6963L5.20361 31.779L5.28612 31.8618C5.62565 32.1188 6.03943 32.2578 6.46481 32.2578C6.89018 32.2578 7.30397 32.1188 7.64349 31.8618L24.8641 22.0493L24.7226 21.9429Z" fill="black"/>
<path opacity="0.12" d="M5.20316 31.6253C4.81898 31.163 4.62507 30.571 4.66096 29.9702V30.1476C4.62507 30.7484 4.81898 31.3403 5.20316 31.8027L5.28567 31.7199L5.20316 31.6253Z" fill="black"/>
<path opacity="0.12" d="M30.6151 18.5977L24.7217 21.9434L24.8278 22.0498L30.6151 18.7632C30.9435 18.6085 31.2254 18.3696 31.4323 18.0707C31.6393 17.7718 31.764 17.4235 31.7938 17.0608C31.7275 17.3903 31.5868 17.7002 31.3825 17.9666C31.1781 18.233 30.9156 18.4489 30.6151 18.5977Z" fill="black"/>
<path opacity="0.25" d="M7.6423 2.42457L30.6149 15.5237C30.9154 15.6725 31.1779 15.8884 31.3822 16.1548C31.5866 16.4212 31.7273 16.7311 31.7936 17.0606C31.7637 16.6979 31.639 16.3496 31.4321 16.0507C31.2251 15.7518 30.9433 15.5129 30.6149 15.3582L7.6423 2.25905C5.99214 1.32509 4.64844 2.10536 4.64844 3.99693V4.17427C4.6838 2.27088 6.00393 1.4906 7.6423 2.42457Z" fill="white"/>
<defs>
<linearGradient id="paint0_linear" x1="18.593" y1="3.71255" x2="-1.24472" y2="23.4908" gradientUnits="userSpaceOnUse">
<stop stop-color="#00A0FF"/>
<stop offset="0.01" stop-color="#00A1FF"/>
<stop offset="0.26" stop-color="#00BEFF"/>
<stop offset="0.51" stop-color="#00D2FF"/>
<stop offset="0.76" stop-color="#00DFFF"/>
<stop offset="1" stop-color="#00E3FF"/>
</linearGradient>
<linearGradient id="paint1_linear" x1="32.7732" y1="17.0604" x2="4.26076" y2="17.0604" gradientUnits="userSpaceOnUse">
<stop stop-color="#FFE000"/>
<stop offset="0.41" stop-color="#FFBD00"/>
<stop offset="0.78" stop-color="#FFA500"/>
<stop offset="1" stop-color="#FF9C00"/>
</linearGradient>
<linearGradient id="paint2_linear" x1="22.1649" y1="19.7799" x2="-4.74252" y2="46.5949" gradientUnits="userSpaceOnUse">
<stop stop-color="#FF3A44"/>
<stop offset="1" stop-color="#C31162"/>
</linearGradient>
<linearGradient id="paint3_linear" x1="1.50163" y1="-6.37214" x2="13.5131" y2="5.60325" gradientUnits="userSpaceOnUse">
<stop stop-color="#32A071"/>
<stop offset="0.07" stop-color="#2DA771"/>
<stop offset="0.48" stop-color="#15CF74"/>
<stop offset="0.8" stop-color="#06E775"/>
<stop offset="1" stop-color="#00F076"/>
</linearGradient>
</defs>
</svg>
